HIERARCHY
ROOT Pelvis
{
	OFFSET 0.000000 0.000000 0.000000
	CHANNELS 6 Xposition Yposition Zposition Zrotation Yrotation Xrotation 
	JOINT Left_hip
	{
		OFFSET 0.067986 -0.089946 -0.007639
		CHANNELS 3 Zrotation Yrotation Xrotation
		JOINT Left_knee
		{
			OFFSET 0.036308 -0.388288 -0.004016
			CHANNELS 3 Zrotation Yrotation Xrotation
			JOINT Left_ankle
			{
				OFFSET -0.012264 -0.413250 -0.042878
				CHANNELS 3 Zrotation Yrotation Xrotation
				JOINT Left_foot
				{
					OFFSET 0.024043 -0.058563 0.118570
					CHANNELS 3 Zrotation Yrotation Xrotation
					End Site
					{
						OFFSET 0.000000 0.000000 0.000000
					}
				}
			}
		}
	}
	JOINT Right_hip
	{
		OFFSET -0.065648 -0.089374 -0.003858
		CHANNELS 3 Zrotation Yrotation Xrotation
		JOINT Right_knee
		{
			OFFSET -0.042132 -0.395021 -0.006361
			CHANNELS 3 Zrotation Yrotation Xrotation
			JOINT Right_ankle
			{
				OFFSET 0.014805 -0.413264 -0.041054
				CHANNELS 3 Zrotation Yrotation Xrotation
				JOINT Right_foot
				{
					OFFSET -0.021758 -0.049013 0.121832
					CHANNELS 3 Zrotation Yrotation Xrotation
					End Site
					{
						OFFSET 0.000000 0.000000 0.000000
					}
				}
			}
		}
	}
	JOINT Spine1
	{
		OFFSET -0.002755 0.104406 -0.022277
		CHANNELS 3 Zrotation Yrotation Xrotation
		JOINT Spine2
		{
			OFFSET 0.004136 0.129393 -0.002186
			CHANNELS 3 Zrotation Yrotation Xrotation
			JOINT Spine3
			{
				OFFSET 0.001906 0.049304 0.025578
				CHANNELS 3 Zrotation Yrotation Xrotation
				JOINT Neck
				{
					OFFSET -0.004620 0.210958 -0.044063
					CHANNELS 3 Zrotation Yrotation Xrotation
					JOINT Head
					{
						OFFSET 0.003833 0.067393 0.052435
						CHANNELS 3 Zrotation Yrotation Xrotation
						End Site
						{
							OFFSET 0.000000 0.000000 0.000000
						}
					}
				}
				JOINT Left_collar
				{
					OFFSET 0.070771 0.116689 -0.037192
					CHANNELS 3 Zrotation Yrotation Xrotation
					JOINT Left_shoulder
					{
						OFFSET 0.080652 0.031596 -0.005617
						CHANNELS 3 Zrotation Yrotation Xrotation
						JOINT Left_elbow
						{
							OFFSET 0.262654 -0.015020 -0.027939
							CHANNELS 3 Zrotation Yrotation Xrotation
							JOINT Left_wrist
							{
								OFFSET 0.250438 0.010062 -0.000990
								CHANNELS 3 Zrotation Yrotation Xrotation
								JOINT Left_palm
								{
									OFFSET 0.081198 -0.010037 -0.013706
									CHANNELS 3 Zrotation Yrotation Xrotation
									End Site
									{
										OFFSET 0.000000 0.000000 0.000000
									}
								}
							}
						}
					}
				}
				JOINT Right_collar
				{
					OFFSET -0.072972 0.115556 -0.040762
					CHANNELS 3 Zrotation Yrotation Xrotation
					JOINT Right_shoulder
					{
						OFFSET -0.082917 0.031841 -0.006673
						CHANNELS 3 Zrotation Yrotation Xrotation
						JOINT Right_elbow
						{
							OFFSET -0.252882 -0.013790 -0.020410
							CHANNELS 3 Zrotation Yrotation Xrotation
							JOINT Right_wrist
							{
								OFFSET -0.255570 0.009163 -0.005138
								CHANNELS 3 Zrotation Yrotation Xrotation
								JOINT Right_palm
								{
									OFFSET -0.080804 -0.007282 -0.010415
									CHANNELS 3 Zrotation Yrotation Xrotation
									End Site
									{
										OFFSET 0.000000 0.000000 0.000000
									}
								}
							}
						}
					}
				}
			}
		}
	}
}
MOTION
Frames: 6
Frame Time: 0.100000
-0.014185 0.007272 -0.037689 172.820701 23.424761 -13.002306 7.160861 3.690647 -1.390017 -3.432915 -9.416778 -1.372388 -1.316463 7.433430 -3.589620 3.975458 7.465953 -7.547481 -4.831424 -6.974183 -1.152037 3.164977 0.525931 0.690008 3.465748 -8.455509 -2.634787 -0.906910 2.302754 3.842711 -1.806777 6.461979 3.192782 -0.453643 1.047223 12.748941 0.299572 6.903480 -7.222034 7.408295 -12.702638 1.547623 10.879209 -1.965757 -5.394860 -17.504153 -11.647692 -6.080216 -36.620504 -9.074812 16.831536 173.731633 -70.869780 -157.011931 8.335440 -6.081306 -6.123033 -18.647193 -11.029569 -6.937167 8.907480 27.391244 1.917954 8.370756 35.009442 -5.311139 9.328554 49.860070 25.365273 -4.437087 5.473622 23.742028 12.747301 12.333150 -7.935354 
-0.015073 0.007204 -0.034900 171.855702 26.266082 -13.764324 7.461316 3.692026 -1.430284 -3.704375 -11.796333 -1.225355 -2.302445 7.933651 -3.851463 4.210120 5.881804 -8.430225 -4.592521 -7.981717 -0.044485 3.142371 0.994059 0.351912 2.303372 -10.760816 -2.796972 0.050978 4.436746 5.061010 -1.752563 6.523884 2.917178 -0.621452 0.865565 13.351685 0.274369 6.894045 -7.664031 6.411095 -14.585802 1.558655 11.666230 -1.904911 -4.889605 -19.073960 -12.066553 -5.420464 -36.534313 -11.445287 17.409483 -173.199961 -71.626958 -171.493445 3.984876 -6.164930 -3.563400 -19.302284 -11.960908 -6.353645 9.616254 25.534766 2.962961 5.413521 30.465023 -7.261175 8.013935 28.069887 24.795128 2.937823 0.681535 33.083688 12.471294 15.304766 -9.154204 
-0.016580 0.006785 -0.029529 171.213465 28.506149 -14.652962 7.631457 3.367861 -0.890666 -3.858674 -13.301915 -0.928664 -2.979814 7.957604 -4.394574 4.721148 5.391784 -8.446733 -4.582871 -8.402979 1.291915 3.124764 0.549642 0.442575 1.790251 -11.853031 -3.513041 1.054068 5.341991 5.850571 -1.911665 6.783147 2.566952 -1.009974 0.999115 14.163255 0.306163 6.586628 -7.548146 6.132101 -14.791174 1.870343 12.663904 -2.570500 -6.124056 -20.690580 -11.974750 -5.133837 -35.874400 -12.087637 18.590114 -167.579999 -70.527129 -178.661659 0.009091 -6.855911 -0.573946 -20.693564 -13.280903 -8.146687 10.233078 23.695918 4.597915 7.986692 21.470221 -0.968365 15.969449 26.969724 33.170450 12.086756 -0.892749 28.893890 12.999027 16.961160 -9.620992 
-0.016792 0.006480 -0.025072 171.396020 28.807063 -14.650391 7.564623 3.026443 -0.479308 -3.916836 -12.972493 -0.933225 -3.240688 7.655631 -4.883927 6.144934 5.693650 -7.130579 -4.850292 -7.926362 1.589727 3.245839 -0.641961 0.879401 1.799254 -11.032002 -4.249586 1.426763 4.382930 5.633696 -2.337059 6.585948 2.101064 -0.926254 0.734761 14.520282 0.317597 5.777992 -7.358292 5.274649 -12.968241 2.769094 12.244677 -2.312213 -6.789937 -21.812742 -10.234289 -5.241208 -34.764828 -10.905633 20.197720 -168.222681 -69.814636 -179.575801 -1.526347 -7.843479 -0.998688 -21.379524 -13.376233 -10.196487 11.626306 21.822240 4.662259 11.430089 16.537218 6.005772 31.658132 41.488878 43.102953 17.304088 3.703889 14.506766 13.871918 15.688863 -8.372297 
-0.016315 0.005843 -0.022875 172.064476 27.072514 -14.273314 7.448308 3.007390 0.068622 -3.678421 -11.440313 -1.117152 -2.736587 7.275288 -4.988257 6.492935 6.711675 -6.066775 -5.075111 -7.165533 1.439096 3.411650 -1.221082 0.996360 2.224390 -9.242614 -4.423144 1.484971 2.667522 4.945710 -2.602949 6.375136 1.774756 -0.674056 0.562540 14.670529 0.329241 5.410733 -7.134462 5.213935 -10.975730 3.563408 11.353005 -2.035441 -7.086466 -21.272015 -9.739876 -5.362326 -34.510990 -9.340810 21.485338 -169.915411 -69.927087 -177.742799 0.437917 -8.304250 -2.987412 -21.422228 -12.890876 -11.754815 11.775879 22.410215 4.137381 14.704751 17.051806 10.202169 50.283148 55.713091 58.641004 14.088489 8.734985 2.109528 14.639399 13.380417 -7.274015 
-0.014309 0.005722 -0.023401 172.640338 24.946525 -13.614077 7.469893 3.209475 0.078311 -3.480912 -9.705686 -1.342571 -2.039415 6.844749 -4.781688 6.111864 7.821990 -5.633136 -5.035749 -6.516580 0.616925 3.504939 -1.294278 1.063769 2.777459 -7.696548 -4.275977 0.939607 1.251744 4.465001 -2.798808 6.256941 1.830630 -0.305004 0.480192 14.427909 0.403107 5.436450 -7.169937 5.427104 -9.763871 3.457160 10.584150 -1.780416 -6.898363 -20.377385 -10.089593 -5.392254 -35.277271 -8.269847 22.149808 -170.664867 -70.154855 -175.333328 1.908854 -8.322135 -4.848209 -20.847046 -12.228955 -11.991201 11.795212 23.599516 3.240479 16.121570 20.827231 10.061265 60.756694 64.894870 68.783869 8.667852 10.122054 -2.142809 15.079356 11.632503 -6.956848 
